<?xml version="1.0" encoding="UTF-8" standalone="no"?>
<!-- Created with Inkscape (http://www.inkscape.org/) -->

<svg
   xmlns:dc="http://purl.org/dc/elements/1.1/"
   xmlns:cc="http://creativecommons.org/ns#"
   xmlns:rdf="http://www.w3.org/1999/02/22-rdf-syntax-ns#"
   xmlns:svg="http://www.w3.org/2000/svg"
   xmlns="http://www.w3.org/2000/svg"
   xmlns:sodipodi="http://sodipodi.sourceforge.net/DTD/sodipodi-0.dtd"
   xmlns:inkscape="http://www.inkscape.org/namespaces/inkscape"
   width="511.01462"
   height="152.86804"
   id="svg4120"
   version="1.1"
   inkscape:version="0.91 r13725"
   sodipodi:docname="period-amplitude.svg">
  <sodipodi:namedview
     id="base"
     pagecolor="#ffffff"
     bordercolor="#666666"
     borderopacity="1.0"
     inkscape:pageopacity="0.0"
     inkscape:pageshadow="2"
     inkscape:zoom="1.8316501"
     inkscape:cx="255.50731"
     inkscape:cy="76.434023"
     inkscape:document-units="px"
     inkscape:current-layer="layer1"
     showgrid="false"
     inkscape:window-width="1366"
     inkscape:window-height="745"
     inkscape:window-x="-8"
     inkscape:window-y="-8"
     inkscape:window-maximized="1"
     showborder="true" />
  <defs
     id="defs4122">
    <marker
       style="overflow:visible"
       id="Arrow1Mstarty"
       refX="0"
       refY="0"
       orient="auto"
       inkscape:stockid="Arrow1Mstarty">
      <path
         transform="matrix(0.4,0,0,0.4,4,0)"
         style="fill:#19aeff;fill-rule:evenodd;stroke:#19aeff;stroke-width:1pt;marker-start:none"
         d="M 0,0 5,-5 -12.5,0 5,5 0,0 Z"
         id="path9144"
         inkscape:connector-curvature="0" />
    </marker>
    <marker
       style="overflow:visible"
       id="Arrow1Mend8"
       refX="0"
       refY="0"
       orient="auto"
       inkscape:stockid="Arrow1Mend8">
      <path
         transform="matrix(-0.4,0,0,-0.4,-4,0)"
         style="fill:#19aeff;fill-rule:evenodd;stroke:#19aeff;stroke-width:1pt;marker-start:none"
         d="M 0,0 5,-5 -12.5,0 5,5 0,0 Z"
         id="path9147"
         inkscape:connector-curvature="0" />
    </marker>
    <marker
       style="overflow:visible"
       id="Arrow1Mend"
       refX="0"
       refY="0"
       orient="auto"
       inkscape:stockid="Arrow1Mend">
      <path
         transform="matrix(-0.4,0,0,-0.4,-4,0)"
         style="fill-rule:evenodd;stroke:#000000;stroke-width:1pt;marker-start:none"
         d="M 0,0 5,-5 -12.5,0 5,5 0,0 Z"
         id="path3208"
         inkscape:connector-curvature="0" />
    </marker>
    <marker
       style="overflow:visible"
       id="Arrow1MstartR"
       refX="0"
       refY="0"
       orient="auto"
       inkscape:stockid="Arrow1MstartR">
      <path
         transform="matrix(0.4,0,0,0.4,4,0)"
         style="fill:#c4a000;fill-rule:evenodd;stroke:#c4a000;stroke-width:1pt;marker-start:none"
         d="M 0,0 5,-5 -12.5,0 5,5 0,0 Z"
         id="path8138"
         inkscape:connector-curvature="0" />
    </marker>
    <marker
       style="overflow:visible"
       id="Arrow1MendB"
       refX="0"
       refY="0"
       orient="auto"
       inkscape:stockid="Arrow1MendB">
      <path
         transform="matrix(-0.4,0,0,-0.4,-4,0)"
         style="fill:#c4a000;fill-rule:evenodd;stroke:#c4a000;stroke-width:1pt;marker-start:none"
         d="M 0,0 5,-5 -12.5,0 5,5 0,0 Z"
         id="path8141"
         inkscape:connector-curvature="0" />
    </marker>
    <marker
       style="overflow:visible"
       id="Arrow1MstartU"
       refX="0"
       refY="0"
       orient="auto"
       inkscape:stockid="Arrow1MstartU">
      <path
         transform="matrix(0.4,0,0,0.4,4,0)"
         style="fill:#c4a000;fill-rule:evenodd;stroke:#c4a000;stroke-width:1pt;marker-start:none"
         d="M 0,0 5,-5 -12.5,0 5,5 0,0 Z"
         id="path8144"
         inkscape:connector-curvature="0" />
    </marker>
    <marker
       style="overflow:visible"
       id="Arrow1Mendc"
       refX="0"
       refY="0"
       orient="auto"
       inkscape:stockid="Arrow1Mendc">
      <path
         transform="matrix(-0.4,0,0,-0.4,-4,0)"
         style="fill:#c4a000;fill-rule:evenodd;stroke:#c4a000;stroke-width:1pt;marker-start:none"
         d="M 0,0 5,-5 -12.5,0 5,5 0,0 Z"
         id="path8147"
         inkscape:connector-curvature="0" />
    </marker>
    <marker
       style="overflow:visible"
       id="Arrow1MstartyP"
       refX="0"
       refY="0"
       orient="auto"
       inkscape:stockid="Arrow1MstartyP">
      <path
         transform="matrix(0.4,0,0,0.4,4,0)"
         style="fill:#204a87;fill-rule:evenodd;stroke:#204a87;stroke-width:1pt;marker-start:none"
         d="M 0,0 5,-5 -12.5,0 5,5 0,0 Z"
         id="path4896"
         inkscape:connector-curvature="0" />
    </marker>
    <marker
       style="overflow:visible"
       id="Arrow1Mend8S"
       refX="0"
       refY="0"
       orient="auto"
       inkscape:stockid="Arrow1Mend8S">
      <path
         transform="matrix(-0.4,0,0,-0.4,-4,0)"
         style="fill:#204a87;fill-rule:evenodd;stroke:#204a87;stroke-width:1pt;marker-start:none"
         d="M 0,0 5,-5 -12.5,0 5,5 0,0 Z"
         id="path4899"
         inkscape:connector-curvature="0" />
    </marker>
    <marker
       style="overflow:visible"
       id="Arrow1MstartyP1"
       refX="0"
       refY="0"
       orient="auto"
       inkscape:stockid="Arrow1MstartyP1">
      <path
         transform="matrix(0.4,0,0,0.4,4,0)"
         style="fill:#c4a000;fill-rule:evenodd;stroke:#c4a000;stroke-width:1pt;marker-start:none"
         d="M 0,0 5,-5 -12.5,0 5,5 0,0 Z"
         id="path7671"
         inkscape:connector-curvature="0" />
    </marker>
    <marker
       style="overflow:visible"
       id="Arrow1Mend8SO"
       refX="0"
       refY="0"
       orient="auto"
       inkscape:stockid="Arrow1Mend8SO">
      <path
         transform="matrix(-0.4,0,0,-0.4,-4,0)"
         style="fill:#c4a000;fill-rule:evenodd;stroke:#c4a000;stroke-width:1pt;marker-start:none"
         d="M 0,0 5,-5 -12.5,0 5,5 0,0 Z"
         id="path7674"
         inkscape:connector-curvature="0" />
    </marker>
    <marker
       style="overflow:visible"
       id="Arrow1Mstartyk"
       refX="0"
       refY="0"
       orient="auto"
       inkscape:stockid="Arrow1Mstartyk">
      <path
         transform="matrix(0.4,0,0,0.4,4,0)"
         style="fill:#009100;fill-rule:evenodd;stroke:#009100;stroke-width:1pt;marker-start:none"
         d="M 0,0 5,-5 -12.5,0 5,5 0,0 Z"
         id="path9171"
         inkscape:connector-curvature="0" />
    </marker>
    <marker
       style="overflow:visible"
       id="Arrow1MstartRm"
       refX="0"
       refY="0"
       orient="auto"
       inkscape:stockid="Arrow1MstartRm">
      <path
         transform="matrix(0.4,0,0,0.4,4,0)"
         style="fill:#ff4141;fill-rule:evenodd;stroke:#ff4141;stroke-width:1pt;marker-start:none"
         d="M 0,0 5,-5 -12.5,0 5,5 0,0 Z"
         id="path16750"
         inkscape:connector-curvature="0" />
    </marker>
    <marker
       style="overflow:visible"
       id="Arrow1MendBB"
       refX="0"
       refY="0"
       orient="auto"
       inkscape:stockid="Arrow1MendBB">
      <path
         transform="matrix(-0.4,0,0,-0.4,-4,0)"
         style="fill:#ff4141;fill-rule:evenodd;stroke:#ff4141;stroke-width:1pt;marker-start:none"
         d="M 0,0 5,-5 -12.5,0 5,5 0,0 Z"
         id="path16753"
         inkscape:connector-curvature="0" />
    </marker>
    <marker
       style="overflow:visible"
       id="Arrow1MstartR5"
       refX="0"
       refY="0"
       orient="auto"
       inkscape:stockid="Arrow1MstartR5">
      <path
         transform="matrix(0.4,0,0,0.4,4,0)"
         style="fill:#73d216;fill-rule:evenodd;stroke:#73d216;stroke-width:1pt;marker-start:none"
         d="M 0,0 5,-5 -12.5,0 5,5 0,0 Z"
         id="path18022"
         inkscape:connector-curvature="0" />
    </marker>
    <marker
       style="overflow:visible"
       id="Arrow1MendBN"
       refX="0"
       refY="0"
       orient="auto"
       inkscape:stockid="Arrow1MendBN">
      <path
         transform="matrix(-0.4,0,0,-0.4,-4,0)"
         style="fill:#73d216;fill-rule:evenodd;stroke:#73d216;stroke-width:1pt;marker-start:none"
         d="M 0,0 5,-5 -12.5,0 5,5 0,0 Z"
         id="path18025"
         inkscape:connector-curvature="0" />
    </marker>
    <marker
       style="overflow:visible"
       id="Arrow1Mend8s"
       refX="0"
       refY="0"
       orient="auto"
       inkscape:stockid="Arrow1Mend8s">
      <path
         transform="matrix(-0.4,0,0,-0.4,-4,0)"
         style="fill:#c4a000;fill-rule:evenodd;stroke:#c4a000;stroke-width:1pt;marker-start:none"
         d="M 0,0 5,-5 -12.5,0 5,5 0,0 Z"
         id="path19034"
         inkscape:connector-curvature="0" />
    </marker>
    <marker
       style="overflow:visible"
       id="Arrow1Mend8SOeg"
       refX="0"
       refY="0"
       orient="auto"
       inkscape:stockid="Arrow1Mend8SOeg">
      <path
         transform="matrix(-0.4,0,0,-0.4,-4,0)"
         style="fill:#005c94;fill-rule:evenodd;stroke:#005c94;stroke-width:1pt;marker-start:none"
         d="M 0,0 5,-5 -12.5,0 5,5 0,0 Z"
         id="path21247"
         inkscape:connector-curvature="0" />
    </marker>
  </defs>
  <metadata
     id="metadata4125">
    <rdf:RDF>
      <cc:Work
         rdf:about="">
        <dc:format>image/svg+xml</dc:format>
        <dc:type
           rdf:resource="http://purl.org/dc/dcmitype/StillImage" />
        <dc:title />
      </cc:Work>
    </rdf:RDF>
  </metadata>
  <g
     id="layer1"
     inkscape:groupmode="layer"
     inkscape:label="Layer 1"
     transform="translate(106.33,1650.6536)">
    <g
       style="stroke:#204a87;stroke-width:5.55393982;stroke-miterlimit:4;stroke-dasharray:none"
       transform="matrix(0.32340758,0,0,0.33729786,-352.54102,-1677.7723)"
       id="g5411">
      <path
         style="color:#008000;fill:none;stroke:#204a87;stroke-width:5.55393982;stroke-miterlimit:4;stroke-dasharray:none;stroke-dashoffset:0;stroke-opacity:1"
         d="m 1677,232 c 18.5752,-30.52716 60.9816,-24.33973 77,5 56.5043,80.41423 77.7493,179.41923 132,261 14.4184,29.50865 57.0353,47.53522 79,15 39.1855,-46.1466 58.2472,-105.12325 83.275,-159.32625"
         id="path5413"
         inkscape:connector-curvature="0"
         sodipodi:nodetypes="ccccc" />
    </g>
    <g
       id="g5315"
       transform="matrix(0.32340758,0,0,0.33729786,-634.94198,-1677.7723)"
       style="stroke:#204a87;stroke-width:5.55393982;stroke-miterlimit:4;stroke-dasharray:none">
      <path
         style="color:#008000;fill:none;stroke:#204a87;stroke-width:5.55393982;stroke-miterlimit:4;stroke-dasharray:none;stroke-dashoffset:0;stroke-opacity:1"
         d="m 1677,232 c 18.5752,-30.52716 60.9816,-24.33973 77,5 56.5043,80.41423 77.7493,179.41923 132,261 14.4184,29.50865 57.0353,47.53522 79,15 39.1855,-46.1466 58.2472,-105.12325 83.275,-159.32625 22.3325,-46.933 39.674,-99.89097 79.7125,-135.32625 32.8559,-23.5583 62.9596,14.38838 77.4609,40.62922 45.159,76.51411 68.1662,164.05371 116.7938,238.72906 14.3036,27.96112 53.5658,47.45205 77.0234,18.4361 45.5189,-53.87099 66.1792,-122.94485 95.9782,-185.70657 19.247,-39.81305 35.4927,-84.56738 71.0062,-113.11406 19.5625,-14.55005 43.9138,-2.85988 56.75,14.67875"
         id="path5317"
         inkscape:connector-curvature="0" />
    </g>
    <path
       inkscape:connector-curvature="0"
       style="fill:#2e3436;fill-opacity:0.75;fill-rule:evenodd;stroke:#c4a000;stroke-width:1.25325453;stroke-linecap:butt;stroke-linejoin:miter;stroke-miterlimit:4;stroke-dasharray:5.01302219, 2.50650483, 1.2532545, 2.50650483;stroke-dashoffset:0;stroke-opacity:1;marker-end:none"
       d="m -106.33,-1552.6553 459.69528,0"
       id="path5355" />
    <path
       id="path5357"
       d="m 215.40239,-1606.4201 137.97125,0"
       style="fill:none;stroke:#c4a000;stroke-width:0.83550996;stroke-linecap:butt;stroke-linejoin:miter;stroke-miterlimit:4;stroke-dasharray:5.01307232, 1.67102829;stroke-dashoffset:0;stroke-opacity:1;marker-end:none"
       inkscape:connector-curvature="0" />
    <path
       inkscape:connector-curvature="0"
       style="fill:#2e3436;fill-opacity:0.75;fill-rule:evenodd;stroke:#c4a000;stroke-width:0.83551413;stroke-linecap:butt;stroke-linejoin:miter;stroke-miterlimit:4;stroke-dasharray:5.01308068, 1.67102411;stroke-dashoffset:0;stroke-opacity:1;marker-end:none"
       d="m 288.91437,-1498.807 64.45509,0"
       id="path5359" />
    <text
       xml:space="preserve"
       style="color:#000000;font-style:normal;font-variant:normal;font-weight:normal;font-stretch:normal;font-size:16.71011543px;line-height:125%;font-family:'Comic Sans MS';-inkscape-font-specification:'Comic Sans MS';text-indent:0;text-align:start;text-decoration:none;text-decoration-line:none;letter-spacing:0px;word-spacing:0px;text-transform:none;direction:ltr;block-progression:tb;writing-mode:lr-tb;baseline-shift:baseline;text-anchor:start;display:inline;overflow:visible;visibility:visible;fill:#19aeff;fill-opacity:1;fill-rule:nonzero;stroke:none;stroke-width:1px;marker:none;enable-background:accumulate"
       x="113.22447"
       y="-1635.5254"
       id="text5361"
       sodipodi:linespacing="125%"><tspan
         sodipodi:role="line"
         id="tspan5363"
         x="113.22447"
         y="-1635.5254">周期</tspan></text>
    <text
       xml:space="preserve"
       style="color:#000000;font-style:normal;font-variant:normal;font-weight:normal;font-stretch:normal;font-size:16.71011543px;line-height:125%;font-family:'Comic Sans MS';-inkscape-font-specification:'Comic Sans MS';text-indent:0;text-align:start;text-decoration:none;text-decoration-line:none;letter-spacing:0px;word-spacing:0px;text-transform:none;direction:ltr;block-progression:tb;writing-mode:lr-tb;baseline-shift:baseline;text-anchor:start;display:inline;overflow:visible;visibility:visible;fill:#c4a000;fill-opacity:1;fill-rule:nonzero;stroke:none;stroke-width:1px;marker:none;enable-background:accumulate"
       x="325.74176"
       y="-1573.2743"
       id="text5365"
       sodipodi:linespacing="125%"><tspan
         sodipodi:role="line"
         id="tspan5367"
         x="325.74176"
         y="-1573.2743">振幅</tspan></text>
    <text
       sodipodi:linespacing="125%"
       id="text5369"
       y="-1519.1545"
       x="326.03775"
       style="color:#000000;font-style:normal;font-variant:normal;font-weight:normal;font-stretch:normal;font-size:16.71011543px;line-height:125%;font-family:'Comic Sans MS';-inkscape-font-specification:'Comic Sans MS';text-indent:0;text-align:start;text-decoration:none;text-decoration-line:none;letter-spacing:0px;word-spacing:0px;text-transform:none;direction:ltr;block-progression:tb;writing-mode:lr-tb;baseline-shift:baseline;text-anchor:start;display:inline;overflow:visible;visibility:visible;fill:#c4a000;fill-opacity:1;fill-rule:nonzero;stroke:none;stroke-width:1px;marker:none;enable-background:accumulate"
       xml:space="preserve"><tspan
         y="-1519.1545"
         x="326.03775"
         id="tspan5371"
         sodipodi:role="line">振幅</tspan></text>
    <g
       style="color:#808080;fill:#19aeff;stroke:#19aeff;stroke-width:1.79955995;stroke-miterlimit:4;stroke-dasharray:none"
       id="g5373"
       transform="matrix(1.1216665,0,0,0.04804576,-260.98212,-1642.8482)">
      <path
         inkscape:connector-curvature="0"
         d="M 286,692 286,50"
         id="path5375"
         style="fill:#19aeff;stroke:#19aeff;stroke-width:1.79955995;stroke-miterlimit:4;stroke-dasharray:none" />
    </g>
    <g
       transform="matrix(1.1216665,0,0,0.04804576,-118.94614,-1642.8482)"
       id="g5377"
       style="color:#808080;fill:#19aeff;stroke:#19aeff;stroke-width:1.79955995;stroke-miterlimit:4;stroke-dasharray:none">
      <path
         style="fill:#19aeff;stroke:#19aeff;stroke-width:1.79955995;stroke-miterlimit:4;stroke-dasharray:none"
         id="path5379"
         d="M 286,692 286,50"
         inkscape:connector-curvature="0" />
    </g>
    <path
       inkscape:connector-curvature="0"
       style="fill:#19aeff;fill-opacity:0.75;fill-rule:evenodd;stroke:#19aeff;stroke-width:1.69398797;stroke-linecap:butt;stroke-linejoin:miter;stroke-miterlimit:4;stroke-dasharray:none;stroke-dashoffset:0;stroke-opacity:1;marker-start:url(#Arrow1Mstarty);marker-end:url(#Arrow1Mend8)"
       d="m 62.016061,-1631.8613 136.780649,0"
       id="path5381" />
    <path
       id="path5383"
       d="m 320.22077,-1551.8198 0,50.7987"
       style="fill:none;stroke:#c4a000;stroke-width:1.69398797;stroke-linecap:butt;stroke-linejoin:miter;stroke-miterlimit:4;stroke-dasharray:none;stroke-dashoffset:0;stroke-opacity:1;marker-start:url(#Arrow1MstartU);marker-end:url(#Arrow1Mendc)"
       inkscape:connector-curvature="0" />
    <path
       inkscape:connector-curvature="0"
       style="fill:none;stroke:#c4a000;stroke-width:1.69398797;stroke-linecap:butt;stroke-linejoin:miter;stroke-miterlimit:4;stroke-dasharray:none;stroke-dashoffset:0;stroke-opacity:1;marker-start:url(#Arrow1MstartR);marker-end:url(#Arrow1MendB)"
       d="m 320.22077,-1604.4567 0,50.7988"
       id="path5385" />
  </g>
</svg>
